<svg width="40" height="40" viewBox="0 0 40 40" fill="none" xmlns="http://www.w3.org/2000/svg">
<g filter="url(#filter0_i_1_633)">
<path d="M20 0C31.0539 0 40 8.94506 40 20C40 31.054 31.0549 40 20 40C8.94593 40 0 31.0549 0 20C0 8.94602 8.94497 0 20 0ZM8.97169 20.9324L15.0323 26.993C15.8561 27.8169 17.2833 27.2423 17.2833 26.0606V24.9449H30.0956C30.8239 24.9449 31.4143 24.3545 31.4143 23.6262V16.3738C31.4143 15.6455 30.8239 15.0551 30.0956 15.0551H17.2833V13.9393C17.2833 12.7647 15.859 12.1797 15.0323 13.0069L8.97169 19.0675C8.4567 19.5825 8.4567 20.4175 8.97169 20.9324Z" fill="#8AA698"/>
</g>
<defs>
<filter id="filter0_i_1_633" x="0" y="0" width="40" height="44" filterUnits="userSpaceOnUse" color-interpolation-filters="sRGB">
<feFlood flood-opacity="0" result="BackgroundImageFix"/>
<feBlend mode="normal" in="SourceGraphic" in2="BackgroundImageFix" result="shape"/>
<feColorMatrix in="SourceAlpha" type="matrix" values="0 0 0 0 0 0 0 0 0 0 0 0 0 0 0 0 0 0 127 0" result="hardAlpha"/>
<feOffset dy="4"/>
<feGaussianBlur stdDeviation="2"/>
<feComposite in2="hardAlpha" operator="arithmetic" k2="-1" k3="1"/>
<feColorMatrix type="matrix" values="0 0 0 0 0 0 0 0 0 0 0 0 0 0 0 0 0 0 0.25 0"/>
<feBlend mode="normal" in2="shape" result="effect1_innerShadow_1_633"/>
</filter>
</defs>
</svg>
