<svg width="190" height="130" viewBox="0 0 190 130" fill="none" xmlns="http://www.w3.org/2000/svg">
<g filter="url(#filter0_i_1_629)">
<path d="M189.623 62.2317V67.4688C189.623 69.4635 188.432 71.4584 186.047 73.0257C158.411 91.1943 130.764 109.355 103.13 127.525C100.8 129.056 98.0397 129.844 94.7582 129.844V124.607C98.0403 124.607 100.8 123.819 103.13 122.287C130.765 104.118 158.41 85.9564 186.047 67.7886C188.432 66.2213 189.623 64.2272 189.623 62.2317Z" fill="#547E69"/>
<path d="M0.000183105 67.5985V67.0748V66.8129V66.2892V65.7655V65.5037V64.9799V64.4562V64.1944V63.6707V63.147V62.8851V62.3614C0.000183105 64.5622 1.32157 66.7476 3.75414 68.3497C31.0551 86.3151 58.3861 104.261 85.6997 122.22C88.2636 123.905 91.367 124.684 95.1359 124.763V130C91.368 129.921 88.2636 129.142 85.6997 127.457C58.3861 109.498 31.0553 91.5522 3.75414 73.5868C1.32137 71.985 0.000183105 69.7993 0.000183105 67.5985Z" fill="#547E69"/>
<path d="M94.7605 0C97.9675 0 101.178 0.802327 103.624 2.40863C131.22 20.5422 158.818 38.6757 186.409 56.8124C191.189 59.954 191.199 64.8049 186.424 67.9445C158.788 86.1131 131.141 104.275 103.507 122.443C101.177 123.975 98.4169 124.763 95.136 124.763C91.3678 124.684 88.2632 123.905 85.6995 122.22C58.386 104.261 31.0551 86.3151 3.75397 68.3497C-0.107259 65.8079 -1.16796 61.7943 1.40836 58.5859C2.18116 57.6227 3.11783 56.8159 4.26075 56.0646C31.4948 38.1761 58.7212 20.2828 85.9501 2.38903C88.3748 0.796941 91.5658 0 94.7605 0Z" fill="#003E1F"/>
<path d="M52.5756 36.1175V33.6036C52.5755 33.6229 52.5759 33.6422 52.5768 33.6614C52.6146 34.5628 53.5325 35.0003 54.7037 35.319C58.2614 36.2858 61.7951 37.2913 65.3611 38.249C66.0712 38.4408 66.2956 38.6786 66.2956 39.184V41.6978C66.2956 41.1924 66.0712 40.9546 65.3611 40.7626C61.7951 39.8051 58.261 38.7993 54.7037 37.8328C53.5327 37.5143 52.6146 37.0766 52.5768 36.1751C52.576 36.1559 52.5756 36.1367 52.5756 36.1175Z" fill="#002C16"/>
<path d="M66.2958 39.184V41.6978C66.2958 41.1923 66.0714 40.9546 65.3615 40.7626C61.7955 39.8051 58.2612 38.7993 54.7039 37.8328C53.5329 37.5142 52.6148 37.0766 52.5769 36.175C52.5761 36.1558 52.5757 36.1365 52.5758 36.1173V33.6035C52.5757 33.6227 52.5761 33.642 52.5769 33.6612C52.6148 34.5626 53.5327 35.0001 54.7039 35.3188C58.2618 36.2856 61.7955 37.2911 65.3615 38.2488C66.0714 38.4408 66.2958 38.6787 66.2958 39.184Z" fill="#002C16"/>
<path d="M66.2755 76.9305V74.4164C66.2755 74.6131 66.2806 74.8105 66.3053 75.0058C66.6492 77.7018 68.6669 79.6506 72.4072 80.7908C73.268 81.0521 74.2101 81.1959 75.1164 81.3941V83.9083C74.2099 83.7098 73.268 83.5659 72.4072 83.3048C68.6665 82.1644 66.649 80.2155 66.3053 77.5196C66.2808 77.3242 66.2755 77.1272 66.2755 76.9305Z" fill="#002C16"/>
<path d="M75.117 81.3944V83.9084C74.2105 83.71 73.2689 83.5662 72.4078 83.3049C68.6668 82.1646 66.6498 80.2156 66.3059 77.5197C66.2812 77.3242 66.2759 77.1272 66.2759 76.9305V74.4167C66.2759 74.6134 66.2808 74.8106 66.3059 75.0059C66.6498 77.7021 68.667 79.6508 72.4078 80.7911C73.2689 81.0524 74.2105 81.1962 75.117 81.3944Z" fill="#002C16"/>
<path d="M115.151 81.4637V83.9775H92.7163V81.4637H115.151Z" fill="#002C16"/>
<path d="M115.151 81.4637V83.9775H92.7163V81.4637H115.151Z" fill="#002C16"/>
<path d="M122.577 84.0522C122.503 83.2639 122.503 83.2639 122.569 81.5399C122.968 81.4644 123.376 81.4217 123.786 81.4125V83.9267C123.378 83.9356 122.973 83.9777 122.577 84.0522Z" fill="#002C16"/>
<path d="M123.786 81.4128V83.927C123.584 83.9311 123.382 83.9438 123.182 83.965V81.4511C123.382 81.43 123.584 81.4172 123.786 81.4128ZM123.181 81.4506V83.9644C122.774 84.0063 122.375 84.0815 121.989 84.1888V81.675C122.375 81.5679 122.774 81.4926 123.181 81.4506Z" fill="#002C16"/>
<path d="M121.095 84.5095C119.746 85.1118 118.846 86.1149 118.841 87.2099V84.6961C118.847 83.2379 120.443 81.9425 122.569 81.54C122.503 83.2642 122.503 83.2642 122.576 84.0525C122.056 84.1499 121.557 84.3038 121.095 84.5095C121.089 84.4814 121.078 84.4532 121.071 84.4252C121.06 84.4321 121.049 84.4389 121.04 84.4468C121.049 84.439 121.06 84.4323 121.071 84.4252C121.078 84.4532 121.089 84.4811 121.095 84.5095Z" fill="#002C16"/>
<path d="M123.181 81.4506V83.9644C122.774 84.0063 122.375 84.0815 121.989 84.1888V81.675C122.375 81.5679 122.774 81.4926 123.181 81.4506ZM121.989 81.675V84.1891C121.617 84.2925 121.261 84.4262 120.927 84.5877V82.0739C121.261 81.9125 121.617 81.7787 121.989 81.675Z" fill="#002C16"/>
<path d="M120.927 82.0741V84.588C120.508 84.7898 120.131 85.0381 119.808 85.3245V82.8107C120.13 82.5241 120.508 82.2758 120.927 82.0741Z" fill="#002C16"/>
<path d="M119.808 82.8104V85.3242C119.251 85.8221 118.902 86.4172 118.848 87.0485V84.5346C118.902 83.9033 119.251 83.3083 119.808 82.8104Z" fill="#002C16"/>
<path d="M118.848 84.5349V87.0487C118.844 87.102 118.842 87.1562 118.842 87.2099V84.6961C118.841 84.6421 118.844 84.5882 118.848 84.5349Z" fill="#002C16"/>
<path d="M83.8631 83.9217C81.0784 83.94 78.8306 85.4237 78.8162 87.2522V84.7384C78.8302 82.9099 81.0784 81.4259 83.8631 81.4079C83.8791 81.4075 83.8947 81.4075 83.9108 81.4075C83.9327 81.4075 83.955 81.4075 83.9761 81.4079C86.7451 81.4303 88.9812 82.9048 88.9933 84.7374V87.2512C88.9809 85.4186 86.7451 83.9446 83.9761 83.9217C83.9542 83.9213 83.9323 83.9213 83.9108 83.9213C83.8947 83.9213 83.8793 83.9213 83.8631 83.9217Z" fill="#002C16"/>
<path d="M88.993 84.7374V87.2512C88.981 85.4186 86.7451 83.9446 83.9761 83.9217C83.9542 83.9213 83.9323 83.9213 83.9108 83.9213C83.8946 83.9213 83.8791 83.9213 83.8631 83.9217C83.6131 83.9232 83.3635 83.9367 83.1157 83.9621V81.4483C83.3595 81.423 83.6087 81.4094 83.8631 81.4079C83.8791 81.4075 83.8946 81.4075 83.9108 81.4075C83.9327 81.4075 83.955 81.4075 83.9761 81.4079C86.7451 81.4309 88.9812 82.9048 88.993 84.7374Z" fill="#002C16"/>
<path d="M83.1158 81.4485V83.9623C82.709 84.0042 82.3094 84.0793 81.924 84.1863V81.6724C82.3094 81.5654 82.709 81.4903 83.1158 81.4485Z" fill="#002C16"/>
<path d="M81.9241 81.6725V84.1863C81.5622 84.2871 81.2156 84.4172 80.8904 84.5743V82.0603C81.2155 81.9031 81.5621 81.7731 81.9241 81.6725ZM80.8902 82.0603V84.5744C80.4827 84.7706 80.1161 85.0117 79.8025 85.29V82.7761C80.116 82.4977 80.4826 82.2564 80.8902 82.0603Z" fill="#002C16"/>
<path d="M79.8027 82.7762V85.29C79.234 85.7986 78.8791 86.416 78.8238 87.0856V84.5717C78.8791 83.9021 79.234 83.2845 79.8027 82.7762ZM78.8238 84.5717V87.0856C78.8197 87.1409 78.8165 87.1966 78.8163 87.2524V84.7386C78.8167 84.6828 78.8193 84.6271 78.8238 84.5717Z" fill="#002C16"/>
<path d="M123.962 83.925C123.903 83.925 123.844 83.9253 123.786 83.927V81.4128C123.844 81.4115 123.903 81.4112 123.962 81.4112C126.704 81.4112 128.971 82.8427 129.053 84.6537C129.054 84.6827 129.055 84.7116 129.055 84.7401V87.2539C129.055 87.2254 129.054 87.1966 129.053 87.1675C128.972 85.3567 126.704 83.925 123.962 83.925Z" fill="#002C16"/>
<path d="M129.056 84.7401V87.2539C129.055 87.225 129.054 87.1962 129.053 87.1674C128.971 85.3567 126.704 83.925 123.962 83.925C123.903 83.925 123.845 83.9253 123.786 83.927V81.4128C123.845 81.4115 123.903 81.4112 123.962 81.4112C126.704 81.4112 128.972 82.8427 129.053 84.6536C129.054 84.6826 129.055 84.7113 129.056 84.7401Z" fill="#002C16"/>
<path d="M129.056 84.7401V87.2539C129.07 89.0638 126.877 90.5501 124.086 90.6053V88.0915C126.877 88.0363 129.07 86.5496 129.056 84.7401Z" fill="#002C16"/>
<path d="M129.056 84.7401V87.2539C129.056 87.3203 129.054 87.3863 129.049 87.4515V84.9376C129.054 84.8722 129.056 84.8065 129.056 84.7401ZM129.049 84.9376V87.4515C128.995 88.1144 128.644 88.7267 128.079 89.2325V86.7186C128.644 86.213 128.995 85.6005 129.049 84.9376ZM128.079 86.7188V89.2328C127.767 89.5111 127.401 89.7523 126.993 89.948V87.4342C127.401 87.2384 127.767 86.9972 128.079 86.7188ZM126.993 87.4342V89.948C126.666 90.1062 126.318 90.237 125.954 90.3382V87.8244C126.318 87.7233 126.667 87.5924 126.993 87.4342ZM125.954 87.8244V90.3382C125.562 90.4469 125.156 90.523 124.742 90.5654V88.0516C125.156 88.0092 125.562 87.933 125.954 87.8244Z" fill="#002C16"/>
<path d="M124.743 88.0516V90.5654C124.525 90.5876 124.306 90.601 124.086 90.6055V88.0917C124.309 88.087 124.528 88.0736 124.743 88.0516Z" fill="#002C16"/>
<path d="M118.841 87.2156V84.7018C118.841 84.7413 118.842 84.7809 118.845 84.8209C118.846 84.8351 118.847 84.8493 118.848 84.8638C118.985 86.6681 121.213 88.0818 123.938 88.093V90.6068C121.214 90.5956 118.986 89.182 118.848 87.3776C118.847 87.3631 118.846 87.349 118.845 87.3347C118.842 87.2947 118.841 87.2551 118.841 87.2156Z" fill="#002C16"/>
<path d="M123.937 88.093V90.6068C121.213 90.5956 118.985 89.1819 118.847 87.3776C118.846 87.3631 118.845 87.3489 118.844 87.3347C118.842 87.2947 118.841 87.2554 118.841 87.2156V84.7018C118.841 84.7413 118.842 84.7809 118.844 84.8209C118.845 84.8351 118.846 84.8493 118.847 84.8638C118.985 86.6682 121.212 88.0819 123.937 88.093Z" fill="#002C16"/>
<path d="M88.9935 84.7371V87.251C89.0055 89.1071 86.7313 90.6091 83.9089 90.6091C83.8393 90.6091 83.7738 90.6082 83.7083 90.6065C81.0093 90.5385 78.8377 89.0772 78.8162 87.2949V84.7811C78.8375 86.5633 81.0093 88.0243 83.7083 88.0927C83.774 88.0944 83.8393 88.095 83.9089 88.095C86.7315 88.0953 89.0055 86.5934 88.9935 84.7371Z" fill="#002C16"/>
<path d="M88.9935 84.7371V87.251C88.9941 87.3176 88.9909 87.3838 88.986 87.4496V84.9358C88.9911 84.8699 88.9941 84.804 88.9935 84.7371ZM88.986 84.9358V87.4498C88.931 88.1206 88.5768 88.7382 88.0089 89.2468V86.7327C88.5768 86.2247 88.9308 85.6069 88.986 84.9358Z" fill="#002C16"/>
<path d="M88.0091 86.7327V89.2467C87.6972 89.5237 87.3325 89.7637 86.9271 89.9589V87.4451C87.3326 87.25 87.6973 87.0098 88.0091 86.7327ZM86.9269 87.4454V89.9592C86.6034 90.1157 86.2585 90.2451 85.8981 90.345V87.8312C86.2583 87.731 86.6032 87.6017 86.9269 87.4454Z" fill="#002C16"/>
<path d="M85.8985 87.8312V90.345C85.5145 90.4519 85.1164 90.5267 84.711 90.5682V88.0543C85.1163 88.0127 85.5145 87.9379 85.8985 87.8312ZM84.7104 88.0543V90.5682C84.3784 90.6024 84.0432 90.6152 83.7083 90.6065C81.0093 90.5385 78.8377 89.0771 78.8162 87.2949V84.7811C78.8375 86.5633 81.0093 88.0243 83.7083 88.0927C83.7738 88.0944 83.8393 88.095 83.9089 88.095C84.177 88.0954 84.4448 88.0818 84.7104 88.0543Z" fill="#002C16"/>
<path d="M71.919 70.4002C71.7419 70.3429 71.5512 70.3063 71.3288 70.2512C71.3288 71.8734 71.1994 73.4617 71.3625 75.0375C71.5435 76.7614 73.6746 77.9869 76.3099 78.0822C76.6579 78.0943 77.0059 78.0951 77.3556 78.0951C84.096 78.0967 90.6452 78.0967 97.1967 78.0967C101.564 78.0957 105.931 78.0957 110.298 78.0957C114.665 78.0957 119.032 78.0957 123.399 78.0967C128.225 78.0982 131.978 79.7753 133.498 82.5899C134.848 85.0916 133.773 87.8461 130.723 89.6918C128.854 90.8234 126.395 91.4334 123.923 91.4334C122.512 91.4334 121.096 91.2346 119.783 90.8202C115.901 89.595 113.89 87.5301 113.836 84.6814C113.816 83.558 114.292 82.5106 115.152 81.464H92.7169C94.1225 83.2939 94.4606 85.1581 93.3694 87.0847C92.594 88.4535 91.2608 89.5388 89.4119 90.336C87.7204 91.0646 85.8033 91.4223 83.8943 91.4223C81.5558 91.4223 79.2289 90.8856 77.3386 89.8371C74.4624 88.2427 72.2181 85.0501 75.1182 81.395C74.2119 81.1966 73.2701 81.0528 72.409 80.7916C68.6682 79.6514 66.6512 77.7023 66.3071 75.0065C66.2657 74.6799 66.2791 74.3493 66.2791 74.0201C66.2771 62.4081 66.271 50.7956 66.2968 39.1844C66.2968 38.679 66.0726 38.4412 65.3627 38.2492C61.7967 37.2918 58.2624 36.2859 54.7052 35.3193C53.5341 35.0007 52.616 34.5631 52.5781 33.6617C52.5401 32.7916 53.3549 32.2914 54.4923 31.9716H55.7287C59.0204 32.8948 62.3098 33.821 65.6015 34.7431C66.7922 35.076 67.9907 35.3961 69.1815 35.7266C70.8965 36.2021 71.2903 36.5871 71.2903 37.793C71.2923 39.3802 71.2903 40.9672 71.2903 42.5542V43.2166C74.3926 43.4986 77.4181 43.7732 80.4456 44.0487C87.4982 44.689 94.5502 45.33 101.605 45.9701C108.19 46.5683 114.777 47.1654 121.364 47.7609C125.707 48.1541 130.051 48.5408 134.393 48.9391C135.749 49.0632 136.638 49.7045 136.64 50.5993C136.652 55.2636 136.724 59.9285 136.608 64.5914C136.521 68.2017 132.014 71.0885 126.525 71.0975C118.89 71.1101 111.253 71.1134 103.618 71.1134C94.5839 71.1134 85.5523 71.1087 76.5175 71.108C74.9045 71.1081 73.3701 70.8704 71.919 70.4002ZM71.2773 55.6093C71.2771 58.4443 71.2781 61.2797 71.2828 64.1148C71.287 66.3653 73.4774 67.8195 76.9279 67.8206C85.1001 67.8249 93.2731 67.8275 101.445 67.8275C109.617 67.8275 117.789 67.8249 125.96 67.8206C129.417 67.8192 131.59 66.3994 131.609 64.1202C131.622 62.6689 131.625 61.2173 131.625 59.7656C131.626 58.3139 131.623 56.8624 131.623 55.4107C131.624 54.443 131.625 53.4752 131.629 52.508C131.629 52.1252 131.47 51.9775 130.854 51.928C127.701 51.6665 124.556 51.3699 121.408 51.0853C114.298 50.4413 107.186 49.7976 100.074 49.152C93.0223 48.5134 85.9701 47.8707 78.9173 47.232C76.4128 47.0048 73.9063 46.784 71.2791 46.5489V47.1037C71.2793 49.939 71.2773 52.774 71.2773 55.6093ZM123.786 81.4129C121.082 81.4729 118.848 82.9705 118.842 84.6961C118.842 84.7378 118.843 84.7794 118.845 84.821L118.848 84.864C118.986 86.6682 121.213 88.082 123.906 88.093H123.938C123.987 88.093 124.037 88.093 124.086 88.0918C126.876 88.0363 129.07 86.5497 129.056 84.7401C129.056 84.7112 129.055 84.6824 129.053 84.6536C128.972 82.8427 126.705 81.4112 123.963 81.4112C123.903 81.4112 123.845 81.4115 123.786 81.4129ZM78.8162 84.7386V84.7815C78.8377 86.5638 81.0097 88.0249 83.7081 88.093C83.774 88.095 83.8395 88.0956 83.9049 88.0956C86.7315 88.0956 89.0053 86.5937 88.9937 84.7378C88.9813 82.9053 86.7455 81.4311 83.9765 81.4084C83.9548 81.4079 83.9327 81.4079 83.9112 81.4079C83.8951 81.4079 83.8795 81.4079 83.8635 81.4084C81.0782 81.426 78.8302 82.9099 78.8162 84.7386Z" fill="#547E69"/>
<g filter="url(#filter1_i_1_629)">
<path d="M71.2792 46.5487C73.9066 46.784 76.4135 47.0045 78.9175 47.2318C85.9699 47.8706 93.0221 48.5131 100.074 49.1519C107.186 49.7972 114.299 50.4411 121.408 51.0853C124.557 51.3699 127.701 51.6665 130.854 51.9277C131.47 51.9774 131.629 52.1249 131.629 52.5078C131.625 53.4754 131.623 54.4432 131.623 55.4105C131.623 56.862 131.626 58.3137 131.625 59.7654C131.625 61.2169 131.622 62.6686 131.61 64.1202C131.59 66.3994 129.418 67.8195 125.961 67.8204C117.789 67.8248 109.617 67.8275 101.445 67.8275C93.2735 67.8275 85.1003 67.8248 76.9282 67.8204C73.4773 67.8192 71.2871 66.3653 71.2828 64.1146C71.2778 61.2797 71.2771 58.4446 71.2772 55.6093C71.2772 52.774 71.2792 49.939 71.2792 47.1037V46.5487Z" fill="#002C16"/>
</g>
<path d="M71.9189 70.4002V72.914C71.7419 72.8567 71.5512 72.8201 71.3287 72.7652V70.2512C71.5514 70.3063 71.7419 70.3429 71.9189 70.4002Z" fill="#002C16"/>
<path d="M71.9189 70.4002V72.914C71.7419 72.8567 71.5512 72.8201 71.3287 72.7652V70.2512C71.5514 70.3063 71.7419 70.3429 71.9189 70.4002Z" fill="#002C16"/>
<path d="M136.671 58.5549V61.0719C136.671 63.0837 136.656 65.095 136.607 67.1064C136.52 70.7167 132.013 73.6036 126.523 73.6125C118.888 73.6251 111.252 73.6284 103.617 73.6284C94.5825 73.6284 85.5509 73.6238 76.5161 73.623C74.9042 73.623 73.3699 73.3851 71.9189 72.9154V70.4014C73.3697 70.8716 74.9044 71.1092 76.5161 71.1092C85.5503 71.1098 94.5823 71.1146 103.617 71.1146C111.252 71.1146 118.888 71.1111 126.523 71.0986C132.013 71.0893 136.519 68.2027 136.607 64.5926C136.656 62.5797 136.671 60.5673 136.671 58.5549Z" fill="#002C16"/>
<path d="M136.671 58.5549V61.0687C136.671 63.081 136.657 65.0935 136.607 67.1055C136.605 67.1911 136.6 67.2766 136.593 67.3621V64.8483C136.6 64.7636 136.605 64.6777 136.607 64.5917C136.657 62.5797 136.671 60.5673 136.671 58.5549ZM136.593 64.848V67.3618C136.484 68.679 135.786 69.8907 134.672 70.8901V68.376C135.786 67.3772 136.484 66.1652 136.593 64.848ZM134.672 68.376V70.8901C134.066 71.4327 133.338 71.9126 132.514 72.3119V69.7981C133.338 69.3986 134.066 68.9186 134.672 68.376ZM132.513 69.798V72.3118C131.866 72.6251 131.176 72.8842 130.454 73.0845V70.5705C131.176 70.3703 131.866 70.1112 132.513 69.798ZM130.454 70.5705V73.0845C129.688 73.2974 128.894 73.447 128.086 73.5304V71.0164C128.894 70.9331 129.688 70.7835 130.454 70.5705ZM128.086 71.0163V73.5304C127.568 73.584 127.046 73.611 126.523 73.6116C118.888 73.6244 111.252 73.6275 103.617 73.6275C94.5823 73.6275 85.5507 73.6229 76.5159 73.6223C74.9039 73.6223 73.3697 73.3842 71.9186 72.9142V70.4004C73.3693 70.8707 74.9041 71.1083 76.5159 71.1083C85.5501 71.109 94.5819 71.1137 103.617 71.1137C111.252 71.1137 118.888 71.1102 126.523 71.0978C127.046 71.0972 127.568 71.0699 128.086 71.0163Z" fill="#002C16"/>
<g filter="url(#filter2_i_1_629)">
<path d="M123.962 81.4108C126.704 81.4112 128.971 82.8426 129.053 84.6533C129.055 84.6826 129.055 84.711 129.056 84.7399C129.069 86.5496 126.876 88.0362 124.086 88.0914C124.036 88.0926 123.987 88.093 123.937 88.093C121.212 88.0818 118.985 86.6681 118.847 84.8638C118.846 84.8495 118.845 84.8352 118.844 84.8209C118.841 84.7793 118.84 84.7376 118.84 84.6959C118.847 82.9704 121.081 81.4725 123.785 81.4127C123.845 81.4115 123.904 81.4108 123.962 81.4108Z" fill="#8AA698"/>
</g>
<g filter="url(#filter3_i_1_629)">
<path d="M83.911 81.4075C83.9329 81.4075 83.9546 81.4075 83.9763 81.4079C86.7453 81.4299 88.9816 82.9048 88.9935 84.7371C89.0055 86.5931 86.7313 88.095 83.9089 88.095C83.8393 88.095 83.7738 88.0944 83.7083 88.0927C81.0093 88.0246 78.8377 86.5633 78.8162 84.7811V84.7381C78.83 82.9093 81.0784 81.4256 83.8627 81.4073L83.911 81.4075Z" fill="#8AA698"/>
</g>
<path d="M94.0148 84.7881V87.3019C94.0148 88.0584 93.8072 88.8234 93.3684 89.5986C92.5932 90.9673 91.2596 92.0526 89.4109 92.85C87.7194 93.5782 85.8021 93.936 83.8933 93.936C81.5548 93.936 79.2279 93.3993 77.3376 92.3508C75.4093 91.2815 73.7649 89.494 73.7649 87.3302V84.8162C73.7649 86.98 75.4091 88.7674 77.3376 89.837C79.2277 90.8856 81.5548 91.4222 83.8933 91.4222C85.8023 91.4222 87.7192 91.0644 89.4109 90.3361C91.2596 89.5389 92.5936 88.4538 93.3684 87.0848C93.8072 86.3095 94.0148 85.5446 94.0148 84.7881Z" fill="#002C16"/>
<path d="M94.0148 84.7881V87.3019C94.0148 87.4107 94.0106 87.5196 94.002 87.6288V85.115C94.011 85.0058 94.0148 84.8967 94.0148 84.7881Z" fill="#002C16"/>
<path d="M94.0022 85.1151V87.6289C93.9503 88.279 93.7441 88.935 93.3686 89.5986C93.036 90.1879 92.5889 90.7359 92.0421 91.2245V88.7107C92.5888 88.222 93.036 87.6739 93.3686 87.0847C93.7443 86.421 93.9503 85.7649 94.0022 85.1151ZM92.0419 88.7107V91.2245C91.4495 91.7544 90.7367 92.2203 89.9083 92.6219V90.1081C90.7371 89.7065 91.4499 89.2406 92.0419 88.7107Z" fill="#002C16"/>
<path d="M89.9086 90.1081V92.6219C89.249 92.9423 88.5454 93.2072 87.8103 93.4121V90.8983C88.3634 90.7446 88.8987 90.5564 89.4109 90.3357C89.5792 90.263 89.7452 90.1871 89.9086 90.1081ZM87.8099 90.8982V93.412C87.0486 93.6236 86.2594 93.7723 85.456 93.8554V91.3415C86.2594 91.2585 87.0486 91.1098 87.8099 90.8982Z" fill="#002C16"/>
<path d="M85.4562 91.3415V93.8553C84.9381 93.9089 84.4159 93.9357 83.8931 93.9357C81.5545 93.9357 79.2277 93.3988 77.3374 92.3503C75.409 91.2811 73.7646 89.4937 73.7646 87.3297V84.8159C73.7646 86.9797 75.4088 88.767 77.3374 89.8365C79.2275 90.8853 81.5545 91.4219 83.8931 91.4219C84.4152 91.4219 84.938 91.3949 85.4562 91.3415Z" fill="#002C16"/>
<path d="M134.071 84.7703V87.2849C134.071 89.1069 132.901 90.8884 130.723 92.2067C128.854 93.3381 126.395 93.9481 123.923 93.9481C122.512 93.9481 121.096 93.7493 119.783 93.3352C115.901 92.11 113.89 90.0448 113.836 87.1961C113.836 87.1734 113.835 87.1507 113.835 87.128V84.6142C113.835 84.6364 113.836 84.6596 113.836 84.6823C113.89 87.531 115.902 89.5964 119.783 90.8213C121.096 91.2354 122.512 91.4343 123.923 91.4343C126.395 91.4343 128.854 90.8244 130.723 89.6929C132.901 88.3737 134.071 86.5921 134.071 84.7703Z" fill="#002C16"/>
<path d="M134.071 84.7701V87.284C134.071 87.3992 134.067 87.5132 134.058 87.6275V85.1135C134.067 84.9994 134.071 84.8852 134.071 84.7701ZM134.058 85.1135V87.6275C133.955 88.8971 133.285 90.1337 132.103 91.1932V88.6793C133.285 87.6199 133.955 86.3832 134.058 85.1135ZM132.103 88.6791V91.1929C131.466 91.761 130.722 92.2539 129.894 92.6553V90.1413C130.18 90.0024 130.457 89.8524 130.723 89.6918C131.225 89.3891 131.687 89.0499 132.103 88.6791ZM129.894 90.1413V92.6553C129.252 92.965 128.568 93.2213 127.854 93.4192V90.9054C128.568 90.7073 129.252 90.451 129.894 90.1413Z" fill="#002C16"/>
<path d="M127.854 90.9054V93.4192C127.086 93.6329 126.289 93.7829 125.478 93.8667V91.3529C126.289 91.2692 127.086 91.1191 127.854 90.9054Z" fill="#002C16"/>
<path d="M125.478 91.3529V93.8667C124.963 93.92 124.443 93.9468 123.923 93.9469C122.511 93.9469 121.095 93.7481 119.783 93.334C115.901 92.1088 113.889 90.0436 113.836 87.1949C113.835 87.1722 113.835 87.1495 113.835 87.1269V84.613C113.835 84.635 113.835 84.6584 113.836 84.6811C113.889 87.5298 115.901 89.5952 119.783 90.8199C121.095 91.2342 122.511 91.4331 123.923 91.4331C124.444 91.4331 124.964 91.4062 125.478 91.3529Z" fill="#002C16"/>
</g>
<defs>
<filter id="filter0_i_1_629" x="0" y="0" width="190" height="134" filterUnits="userSpaceOnUse" color-interpolation-filters="sRGB">
<feFlood flood-opacity="0" result="BackgroundImageFix"/>
<feBlend mode="normal" in="SourceGraphic" in2="BackgroundImageFix" result="shape"/>
<feColorMatrix in="SourceAlpha" type="matrix" values="0 0 0 0 0 0 0 0 0 0 0 0 0 0 0 0 0 0 127 0" result="hardAlpha"/>
<feOffset dy="4"/>
<feGaussianBlur stdDeviation="2"/>
<feComposite in2="hardAlpha" operator="arithmetic" k2="-1" k3="1"/>
<feColorMatrix type="matrix" values="0 0 0 0 0 0 0 0 0 0 0 0 0 0 0 0 0 0 0.25 0"/>
<feBlend mode="normal" in2="shape" result="effect1_innerShadow_1_629"/>
</filter>
<filter id="filter1_i_1_629" x="71.2772" y="46.5487" width="60.352" height="25.2787" filterUnits="userSpaceOnUse" color-interpolation-filters="sRGB">
<feFlood flood-opacity="0" result="BackgroundImageFix"/>
<feBlend mode="normal" in="SourceGraphic" in2="BackgroundImageFix" result="shape"/>
<feColorMatrix in="SourceAlpha" type="matrix" values="0 0 0 0 0 0 0 0 0 0 0 0 0 0 0 0 0 0 127 0" result="hardAlpha"/>
<feOffset dy="4"/>
<feGaussianBlur stdDeviation="2"/>
<feComposite in2="hardAlpha" operator="arithmetic" k2="-1" k3="1"/>
<feColorMatrix type="matrix" values="0 0 0 0 0 0 0 0 0 0 0 0 0 0 0 0 0 0 0.25 0"/>
<feBlend mode="normal" in2="shape" result="effect1_innerShadow_1_629"/>
</filter>
<filter id="filter2_i_1_629" x="118.84" y="81.4108" width="10.2155" height="10.6823" filterUnits="userSpaceOnUse" color-interpolation-filters="sRGB">
<feFlood flood-opacity="0" result="BackgroundImageFix"/>
<feBlend mode="normal" in="SourceGraphic" in2="BackgroundImageFix" result="shape"/>
<feColorMatrix in="SourceAlpha" type="matrix" values="0 0 0 0 0 0 0 0 0 0 0 0 0 0 0 0 0 0 127 0" result="hardAlpha"/>
<feOffset dy="4"/>
<feGaussianBlur stdDeviation="2"/>
<feComposite in2="hardAlpha" operator="arithmetic" k2="-1" k3="1"/>
<feColorMatrix type="matrix" values="0 0 0 0 0 0 0 0 0 0 0 0 0 0 0 0 0 0 0.25 0"/>
<feBlend mode="normal" in2="shape" result="effect1_innerShadow_1_629"/>
</filter>
<filter id="filter3_i_1_629" x="78.8162" y="81.4073" width="10.1774" height="10.6877" filterUnits="userSpaceOnUse" color-interpolation-filters="sRGB">
<feFlood flood-opacity="0" result="BackgroundImageFix"/>
<feBlend mode="normal" in="SourceGraphic" in2="BackgroundImageFix" result="shape"/>
<feColorMatrix in="SourceAlpha" type="matrix" values="0 0 0 0 0 0 0 0 0 0 0 0 0 0 0 0 0 0 127 0" result="hardAlpha"/>
<feOffset dy="4"/>
<feGaussianBlur stdDeviation="2"/>
<feComposite in2="hardAlpha" operator="arithmetic" k2="-1" k3="1"/>
<feColorMatrix type="matrix" values="0 0 0 0 0 0 0 0 0 0 0 0 0 0 0 0 0 0 0.25 0"/>
<feBlend mode="normal" in2="shape" result="effect1_innerShadow_1_629"/>
</filter>
</defs>
</svg>
