<svg width="190" height="130" viewBox="0 0 190 130" fill="none" xmlns="http://www.w3.org/2000/svg">
<g filter="url(#filter0_i_1_550)">
<path d="M190 62.3871V67.6242C190 69.619 188.809 71.6139 186.424 73.1811C158.788 91.3497 131.141 109.511 103.506 127.68C101.177 129.212 98.4163 129.999 95.1348 129.999V124.762C98.4169 124.762 101.177 123.975 103.506 122.443C131.141 104.274 158.787 86.1119 186.424 67.944C188.809 66.3768 190 64.3826 190 62.3871Z" fill="#547E69"/>
<path d="M0.000205994 67.5985V67.0748V66.8129V66.2892V65.7655V65.5037V64.9799V64.4562V64.1944V63.6707V63.147V62.8851V62.3614C0.000205994 64.5622 1.32159 66.7476 3.75416 68.3497C31.0553 86.3151 58.3862 104.261 85.6997 122.22C88.2636 123.905 91.367 124.684 95.136 124.763V130C91.368 129.921 88.2636 129.142 85.6997 127.457C58.3862 109.498 31.0553 91.5522 3.75416 73.5868C1.3214 71.985 0.000205994 69.7993 0.000205994 67.5985Z" fill="#547E69"/>
<path d="M94.7605 0C97.9675 0 101.178 0.802327 103.624 2.40863C131.22 20.5422 158.818 38.6758 186.409 56.8127C191.189 59.9543 191.199 64.8049 186.424 67.9446C158.788 86.1132 131.141 104.275 103.507 122.443C101.177 123.975 98.4169 124.763 95.136 124.763C91.3678 124.684 88.2632 123.905 85.6995 122.22C58.386 104.261 31.0551 86.3151 3.75397 68.3497C-0.107259 65.8079 -1.16796 61.7943 1.40836 58.586C2.18116 57.6227 3.11783 56.816 4.26075 56.0649C31.4948 38.1759 58.7212 20.2828 85.9501 2.38903C88.3748 0.79709 91.5658 0 94.7605 0Z" fill="#003E1F"/>
<g filter="url(#filter1_i_1_550)">
<path d="M111.561 42.8504C112.158 42.8598 112.556 42.8654 112.957 42.8687C113.332 42.872 113.709 42.873 114.09 42.8733C114.649 42.8731 115.032 42.8721 115.421 42.8705C116.128 42.8678 116.854 42.8642 117.608 42.8642C112.889 48.4508 108.236 53.9591 103.501 59.5655H116.111V64.1975H98.6251V67.472H115.445V72.0907H98.5383V80.9026H91.4857V72.1404H75.3374V67.4837H91.3919V64.2352H75.2958V59.5838H87.9276C83.1751 53.9579 78.5318 48.4627 73.8049 42.8655C74.4509 42.8655 75.0819 42.8637 75.7024 42.8619C76.1505 42.8607 76.5938 42.8595 77.0317 42.8595C77.7341 42.8595 78.2754 42.8612 78.8141 42.8664C79.3698 42.8716 79.922 42.8803 80.4739 42.8944C80.7961 42.9023 81.1797 43.2564 81.3903 43.5031C85.779 48.6693 90.1423 53.8433 94.5369 59.0053C94.7376 59.2418 95.1393 59.469 95.5229 59.5579C95.6181 59.5787 95.6751 59.5881 95.7299 59.5941C96.4098 59.5426 96.6504 59.317 96.8711 59.0624C101.278 53.8313 105.65 48.6862 109.967 43.52C110.426 43.0153 110.861 42.8601 111.561 42.8504Z" fill="#002C16"/>
</g>
<path d="M94.9902 28.9323C122.584 28.9593 144.47 43.3628 144.466 61.4492C144.462 79.5469 122.516 93.9504 94.9542 93.9454C67.4251 93.9403 45.5241 79.5131 45.5365 61.3904C45.546 43.3384 67.4923 28.9346 94.9902 28.9323ZM116.112 59.5655H103.502C108.236 53.9594 112.889 48.451 117.608 42.8642C116.855 42.8642 116.129 42.8679 115.421 42.8705C115.032 42.8721 114.649 42.8732 114.27 42.8735C113.71 42.8733 113.332 42.872 112.957 42.8688C112.558 42.8656 112.159 42.8598 111.761 42.8515C110.861 42.8604 110.425 43.0155 110.04 43.4374C105.65 48.6864 101.278 53.8313 96.9342 58.9882C96.651 59.3168 96.4104 59.5426 96.0395 59.5926C95.6759 59.5881 95.6187 59.5785 95.5593 59.5658C95.1393 59.469 94.7378 59.2417 94.5369 59.0051C90.1423 53.843 85.779 48.669 81.3903 43.503C81.1797 43.2561 80.7955 42.902 80.4737 42.8943C79.9207 42.8806 79.3676 42.8712 78.8143 42.8663C78.276 42.8615 77.7341 42.8596 77.1863 42.8593C76.5938 42.8596 76.1511 42.8604 75.7032 42.8621C75.0829 42.8637 74.4515 42.8657 73.8053 42.8657C78.5322 48.4628 83.1754 53.9582 87.928 59.5839H75.2964V64.2351H91.3925V67.4839H75.3378V72.1404H91.4861V80.9026H98.5381V72.0908H115.445V67.4721H98.6253V64.1972H116.111C116.112 62.6273 116.112 61.1226 116.112 59.5655Z" fill="#8AA698"/>
<path d="M95.0591 24.2886C126.127 24.3017 151.568 41.0759 151.533 61.5027C151.499 81.8745 126.028 98.5863 95.0137 98.5888C63.9395 98.5888 38.4717 81.8586 38.4679 61.4489C38.4656 41.0077 63.9316 24.2899 95.0591 24.2886ZM94.9546 93.9453C122.516 93.9502 144.462 79.5468 144.466 61.4489C144.47 43.3626 122.584 28.959 95.0747 28.9321C67.4923 28.9345 45.5462 43.3384 45.5363 61.3903C45.5239 79.513 67.4245 93.9399 94.9546 93.9453Z" fill="#547E69"/>
<path d="M151.449 63.4702V65.984C150.84 73.3713 146.889 80.2083 140.579 85.8494V83.3356C146.888 77.6946 150.84 70.8575 151.449 63.4702ZM140.579 83.3356V85.8494C137.164 88.9031 133.057 91.6067 128.415 93.857V91.3432C133.056 89.0928 137.164 86.3893 140.579 83.3356Z" fill="#002C16"/>
<path d="M128.415 91.3431V93.857C124.864 95.5788 121 97.0351 116.892 98.1807V95.6669C121 94.5213 124.864 93.0648 128.415 91.3431ZM116.892 95.6669V98.1806C112.737 99.3393 108.333 100.179 103.752 100.654V98.1399C108.333 97.6657 112.737 96.8255 116.892 95.6669Z" fill="#002C16"/>
<path d="M103.752 98.1402V100.654C100.856 100.953 97.9367 101.103 95.0139 101.103C63.9397 101.103 38.4719 84.3727 38.4681 63.9632V61.4494C38.4721 81.8587 63.9397 98.5891 95.0139 98.5891C97.9367 98.5893 100.856 98.4393 103.752 98.1402Z" fill="#002C16"/>
</g>
<defs>
<filter id="filter0_i_1_550" x="0" y="0" width="190" height="134" filterUnits="userSpaceOnUse" color-interpolation-filters="sRGB">
<feFlood flood-opacity="0" result="BackgroundImageFix"/>
<feBlend mode="normal" in="SourceGraphic" in2="BackgroundImageFix" result="shape"/>
<feColorMatrix in="SourceAlpha" type="matrix" values="0 0 0 0 0 0 0 0 0 0 0 0 0 0 0 0 0 0 127 0" result="hardAlpha"/>
<feOffset dy="4"/>
<feGaussianBlur stdDeviation="2"/>
<feComposite in2="hardAlpha" operator="arithmetic" k2="-1" k3="1"/>
<feColorMatrix type="matrix" values="0 0 0 0 0 0 0 0 0 0 0 0 0 0 0 0 0 0 0.25 0"/>
<feBlend mode="normal" in2="shape" result="effect1_innerShadow_1_550"/>
</filter>
<filter id="filter1_i_1_550" x="73.8049" y="42.8504" width="43.803" height="42.0522" filterUnits="userSpaceOnUse" color-interpolation-filters="sRGB">
<feFlood flood-opacity="0" result="BackgroundImageFix"/>
<feBlend mode="normal" in="SourceGraphic" in2="BackgroundImageFix" result="shape"/>
<feColorMatrix in="SourceAlpha" type="matrix" values="0 0 0 0 0 0 0 0 0 0 0 0 0 0 0 0 0 0 127 0" result="hardAlpha"/>
<feOffset dy="4"/>
<feGaussianBlur stdDeviation="2"/>
<feComposite in2="hardAlpha" operator="arithmetic" k2="-1" k3="1"/>
<feColorMatrix type="matrix" values="0 0 0 0 0 0 0 0 0 0 0 0 0 0 0 0 0 0 0.25 0"/>
<feBlend mode="normal" in2="shape" result="effect1_innerShadow_1_550"/>
</filter>
</defs>
</svg>
