<svg width="190" height="130" viewBox="0 0 190 130" fill="none" xmlns="http://www.w3.org/2000/svg">
<g filter="url(#filter0_i_1_770)">
<path d="M190 62.3871V67.6242C190 69.6189 188.809 71.614 186.424 73.181C158.787 91.3496 131.141 109.511 103.506 127.68C101.177 129.212 98.4162 129.999 95.1348 129.999V124.762C98.4166 124.762 101.177 123.974 103.506 122.443C131.141 104.274 158.787 86.1118 186.424 67.9442C188.809 66.3768 190 64.3825 190 62.3871Z" fill="#547E69"/>
<path d="M0.000244141 67.5986V67.0749V66.813V66.2893V65.7656V65.5037V64.98V64.4563V64.1945V63.6707V63.147V62.8852V62.3615C0.000244141 64.5621 1.32163 66.7476 3.7542 68.3496C31.0553 86.315 58.3862 104.261 85.6999 122.22C88.2638 123.905 91.3673 124.684 95.136 124.763V130C91.368 129.921 88.2638 129.142 85.6999 127.457C58.3862 109.498 31.0553 91.5521 3.7542 73.5867C1.32143 71.9849 0.000244141 69.7992 0.000244141 67.5986Z" fill="#547E69"/>
<path d="M94.7605 0C97.9675 0 101.178 0.802326 103.624 2.40862C131.221 20.5422 158.818 38.6758 186.409 56.8127C191.189 59.9542 191.2 64.805 186.424 67.9448C158.788 86.1131 131.141 104.275 103.507 122.443C101.177 123.975 98.4169 124.763 95.1358 124.763C91.3676 124.684 88.2632 123.905 85.6993 122.22C58.386 104.261 31.0551 86.315 3.75397 68.3496C-0.107259 65.8076 -1.16796 61.7942 1.40836 58.586C2.18116 57.6226 3.11783 56.816 4.26075 56.0648C31.4948 38.176 58.7212 20.2827 85.9501 2.38902C88.3748 0.79694 91.5658 0 94.7605 0Z" fill="#003E1F"/>
<path d="M101.778 72.4706V74.9844C101.778 75.9806 101.775 76.9769 101.765 77.9727C101.764 78.007 101.763 78.0408 101.76 78.0741V75.5603C101.763 75.527 101.764 75.4931 101.765 75.4589C101.775 74.4631 101.778 73.4668 101.778 72.4706ZM101.76 75.5602V78.074C101.728 78.4654 101.54 78.8099 101.23 79.088V76.5742C101.54 76.2961 101.728 75.9515 101.76 75.5602Z" fill="#002C16"/>
<path d="M101.23 76.5744V79.0882C101.069 79.2317 100.88 79.356 100.67 79.4568V76.9428C100.88 76.842 101.069 76.7179 101.23 76.5744ZM100.67 76.9428V79.4566C100.496 79.5408 100.305 79.6124 100.099 79.6701V77.1563C100.299 77.1009 100.49 77.0295 100.67 76.9428ZM100.098 77.1562V79.67C99.8562 79.7366 99.6052 79.7832 99.3497 79.8088V77.295C99.6052 77.2694 99.8563 77.2229 100.098 77.1562Z" fill="#002C16"/>
<path d="M99.35 77.295V79.8088C99.3447 79.8096 99.3392 79.8099 99.3338 79.8106C99.1773 79.8262 99.0219 79.8338 98.8683 79.8338C97.6892 79.8338 96.6427 79.3776 96.2468 78.6309C96.1056 78.3646 96.0541 78.0641 96.0522 77.7794C96.0456 75.2695 96.0389 72.7595 96.0389 70.2501V67.7362C96.0389 70.2457 96.0455 72.7556 96.0522 75.2656C96.0543 75.5503 96.1056 75.8508 96.2468 76.1171C96.6431 76.8638 97.6892 77.32 98.8683 77.32C99.0219 77.32 99.1769 77.3124 99.3338 77.2967L99.35 77.295Z" fill="#002C16"/>
<path d="M98.843 59.9551C99.1889 59.9551 99.5507 59.9965 99.9181 60.0845C101.085 60.363 101.767 61.0234 101.771 61.9381C101.783 64.1822 101.775 66.4264 101.775 68.6705C101.773 70.933 101.789 73.1963 101.765 75.4587C101.753 76.4435 100.773 77.1527 99.334 77.2965C99.1775 77.3122 99.0223 77.3199 98.8687 77.3199C97.6896 77.3199 96.6431 76.8636 96.247 76.117C96.106 75.8506 96.0543 75.5502 96.0522 75.2654C96.0401 70.8544 96.0309 66.4448 96.0522 62.0348C96.0569 60.7908 97.2921 59.9551 98.843 59.9551Z" fill="#8AA698"/>
<path d="M71.1185 46.3719C72.5941 46.3719 73.7666 47.0359 73.9786 48.0037C74.0304 48.232 74.0186 48.4672 74.0186 48.6998C74.0204 53.0927 74.0186 57.4853 74.0186 61.8781C74.0186 66.3297 74.0245 70.7812 74.0166 75.2314C74.0131 76.4843 72.8242 77.3223 71.1958 77.3223C70.999 77.3223 70.7959 77.3098 70.5877 77.2847C69.4327 77.1449 68.5603 76.5923 68.3513 75.8322C68.2718 75.5485 68.2501 75.256 68.2501 74.9675C68.2442 66.2199 68.246 57.4719 68.248 48.7243C68.2501 48.4737 68.2641 48.2201 68.3219 47.9733C68.5503 47.0134 69.6731 46.376 71.1185 46.3719Z" fill="#8AA698"/>
<path d="M74.0103 75.3811V77.8949C73.9713 78.3801 73.7495 78.797 73.3908 79.1189V76.6051C73.7491 76.2829 73.9711 75.8663 74.0103 75.3811ZM73.3908 76.6051V79.1189C73.227 79.2657 73.035 79.3928 72.8213 79.4961V76.9823C73.035 76.8789 73.2269 76.7518 73.3908 76.6051ZM72.8213 76.9823V79.4961C72.6584 79.575 72.4819 79.6411 72.2936 79.6936V77.1798C72.4784 77.1287 72.6554 77.0625 72.8213 76.9823Z" fill="#002C16"/>
<path d="M72.2938 77.18V79.6939C72.0881 79.7508 71.8748 79.7906 71.6578 79.8127V77.2989C71.8748 77.2767 72.0881 77.2369 72.2938 77.18ZM71.6578 77.2989V79.8127C71.5086 79.8281 71.3538 79.8361 71.1956 79.8361C70.9984 79.8361 70.7959 79.8235 70.5875 79.7984C69.4325 79.6586 68.5597 79.106 68.3511 78.3459C68.2716 78.0625 68.2498 77.7698 68.2498 77.4812V74.9673C68.2498 75.256 68.2716 75.5488 68.3511 75.8321C68.5597 76.5922 69.4325 77.1448 70.5875 77.2845C70.7959 77.3097 70.9986 77.3221 71.1956 77.3221C71.3542 77.3223 71.509 77.3143 71.6578 77.2989Z" fill="#002C16"/>
<path d="M129.547 72.7693V75.2831C129.547 76.1698 129.543 77.0564 129.529 77.9425C129.529 77.9761 129.527 78.0094 129.524 78.0426V75.5288C129.527 75.496 129.529 75.4625 129.529 75.4287C129.543 74.5424 129.547 73.656 129.547 72.7693ZM129.524 75.5288V78.0426C129.49 78.4583 129.288 78.8216 128.966 79.1105V76.5967C129.288 76.3078 129.49 75.9444 129.524 75.5288ZM128.966 76.5964V79.1102C128.803 79.2559 128.611 79.382 128.398 79.4843V76.9703C128.611 76.8682 128.803 76.7421 128.966 76.5964ZM128.398 76.9706V79.4844C128.227 79.5676 128.044 79.6362 127.853 79.689V77.1752C128.044 77.1223 128.227 77.0537 128.398 76.9706Z" fill="#002C16"/>
<path d="M127.853 77.1749V79.6888C127.639 79.748 127.418 79.7894 127.193 79.8123V77.2985C127.418 77.2756 127.639 77.2342 127.853 77.1749Z" fill="#002C16"/>
<path d="M127.193 77.2985V79.8123C127.041 79.828 126.884 79.8362 126.724 79.8362C126.493 79.8362 126.255 79.8195 126.013 79.7841C124.854 79.6172 123.989 78.9914 123.854 78.2141C123.823 78.0417 123.821 77.8668 123.821 77.6917C123.82 75.6944 123.815 73.6968 123.815 71.6991V69.1851C123.815 71.1829 123.82 73.1804 123.821 75.1779C123.821 75.353 123.823 75.5279 123.854 75.7002C123.989 76.4776 124.854 77.1032 126.013 77.2703C126.255 77.3055 126.493 77.3224 126.724 77.3224C126.881 77.3226 127.038 77.3146 127.193 77.2985Z" fill="#002C16"/>
<path d="M126.595 59.9611C126.916 59.9611 127.243 59.9943 127.559 60.0598C128.746 60.3067 129.513 60.9362 129.523 61.7932C129.553 64.0751 129.533 66.3568 129.533 68.6403C129.539 70.9026 129.565 73.1662 129.529 75.4287C129.51 76.5548 128.281 77.3224 126.724 77.3224C126.493 77.3224 126.255 77.3057 126.013 77.2703C124.853 77.1032 123.989 76.4776 123.854 75.7002C123.822 75.5279 123.82 75.353 123.82 75.1779C123.818 70.8267 123.798 66.4745 123.848 62.1237C123.852 61.6323 124.095 61.0824 124.488 60.6673C124.939 60.1924 125.747 59.9611 126.595 59.9611Z" fill="#8AA698"/>
<path d="M115.685 75.1023V77.6161C115.685 77.6848 115.682 77.7523 115.677 77.8184V75.3046C115.682 75.2385 115.685 75.171 115.685 75.1023ZM115.676 75.3043V77.8181C115.634 78.3547 115.419 78.7954 115.05 79.1274V76.6136C115.42 76.2816 115.634 75.8409 115.676 75.3043Z" fill="#002C16"/>
<path d="M115.05 76.6136V79.1274C114.898 79.2636 114.72 79.3819 114.517 79.4804V76.9666C114.717 76.8699 114.897 76.7509 115.05 76.6136ZM114.517 76.9666V79.4806C114.357 79.5584 114.181 79.624 113.991 79.6772V77.1634C114.175 77.1124 114.351 77.0463 114.517 76.9666ZM113.991 77.1634V79.6772C113.835 79.7201 113.67 79.7551 113.494 79.7815C113.418 79.7931 113.343 79.8027 113.268 79.8106V77.2968C113.343 77.2887 113.418 77.2792 113.494 77.2676C113.663 77.2428 113.829 77.2079 113.991 77.1634Z" fill="#002C16"/>
<path d="M113.268 77.297V79.8108C113.101 79.828 112.936 79.8364 112.775 79.8364C111.322 79.8364 110.124 79.1563 109.942 78.1375C109.914 77.9821 109.908 77.8249 109.908 77.6669V75.153C109.908 75.3111 109.914 75.4682 109.942 75.6236C110.124 76.6426 111.322 77.3226 112.775 77.3226C112.936 77.3226 113.101 77.314 113.268 77.297Z" fill="#002C16"/>
<path d="M112.795 46.3719C114.202 46.3719 115.337 46.9844 115.597 47.9016C115.66 48.1277 115.683 48.3628 115.683 48.5925C115.687 57.4293 115.687 66.2658 115.685 75.1022C115.685 76.291 114.899 77.0564 113.494 77.2679C113.25 77.305 113.009 77.3227 112.775 77.3227C111.322 77.3227 110.124 76.6426 109.943 75.6238C109.89 75.3375 109.913 75.0435 109.913 74.755C109.911 70.442 109.911 66.1299 109.911 61.8183C109.911 57.3706 109.906 52.9243 109.915 48.4765C109.916 47.1987 111.065 46.3731 112.795 46.3719Z" fill="#8AA698"/>
<path d="M87.8903 75.3377V77.8515C87.8801 77.9866 87.861 78.1213 87.833 78.2549C87.7631 78.5715 87.5798 78.8572 87.3133 79.0961V76.5823C87.5798 76.3432 87.7631 76.0577 87.833 75.7411C87.8619 75.6078 87.8795 75.4728 87.8903 75.3377ZM87.3133 76.582V79.0958C87.143 79.2474 86.9437 79.3787 86.7222 79.4855V76.9717C86.9438 76.865 87.1431 76.7336 87.3133 76.582Z" fill="#002C16"/>
<path d="M86.7223 76.9717V79.4855C86.5447 79.5711 86.3555 79.6421 86.158 79.6971V77.1831C86.3556 77.1284 86.5449 77.0575 86.7223 76.9717Z" fill="#002C16"/>
<path d="M86.1581 77.1831V79.6971C85.9453 79.7561 85.7246 79.7975 85.4999 79.8205V77.3067C85.7246 77.2838 85.9453 77.2423 86.1581 77.1831ZM85.4995 77.3067V79.8205C85.3105 79.8401 85.1195 79.8472 84.9288 79.8415C83.4619 79.8012 82.2973 79.0891 82.1719 78.1357C82.1519 77.9723 82.1428 77.8083 82.1445 77.6443V75.1304C82.1445 75.2946 82.1502 75.4584 82.1719 75.6218C82.2973 76.5753 83.4617 77.2872 84.9288 77.3276C85.1195 77.3333 85.3105 77.3263 85.4995 77.3067Z" fill="#002C16"/>
<path d="M84.9581 46.3618C85.2868 46.3618 85.6285 46.3996 85.9742 46.4804C87.0337 46.7285 87.6738 47.2237 87.8327 47.9602C87.8923 48.2268 87.9041 48.4999 87.9041 48.7686C87.9083 57.4905 87.9083 66.2106 87.9041 74.931C87.9041 75.2014 87.8901 75.4745 87.8327 75.7405C87.6281 76.6682 86.4518 77.3291 85.0529 77.3291C85.0117 77.3291 84.9705 77.3288 84.9287 77.3275C83.4618 77.2871 82.2972 76.5752 82.1717 75.6217C82.1278 75.2949 82.1501 74.9645 82.1501 74.6353V61.8164C82.1501 57.3491 82.1437 52.882 82.1538 48.4159C82.1574 47.2042 83.4115 46.3618 84.9581 46.3618Z" fill="#8AA698"/>
<path d="M57.1916 33.013C58.7648 33.0371 59.9178 33.7593 60.0428 34.765C60.0724 34.9962 60.0588 35.2287 60.0588 35.4614C60.061 50.9428 60.061 66.4253 60.061 81.9065V82.724H84.9151C100.641 82.724 116.366 82.7247 132.091 82.728C132.616 82.728 133.161 82.7371 133.663 82.8247C135.002 83.0561 135.773 83.8136 135.701 84.7477C135.633 85.6175 134.691 86.3163 133.359 86.4574C132.956 86.5005 132.539 86.5111 132.129 86.5111C107.392 86.5133 82.6554 86.5138 57.9185 86.5125C55.3068 86.5125 54.295 85.8424 54.295 84.1166C54.295 67.8803 54.295 51.6429 54.2972 35.4066C54.2972 35.1557 54.3051 34.9024 54.3544 34.6541C54.5616 33.657 55.689 33.013 57.1916 33.013Z" fill="#8AA698"/>
<path d="M135.7 84.7491V87.2629C135.671 87.6341 135.482 87.9747 135.171 88.2535V85.7396C135.482 85.461 135.671 85.1206 135.7 84.7491Z" fill="#002C16"/>
<path d="M135.172 85.7398V88.2536C135.005 88.4016 134.811 88.5297 134.595 88.6338V86.1199C134.811 86.0158 135.005 85.8877 135.172 85.7398Z" fill="#002C16"/>
<path d="M134.595 86.1199V88.6338C134.418 88.719 134.23 88.7893 134.033 88.8438V86.33C134.23 86.2757 134.418 86.2053 134.595 86.1199ZM134.033 86.3301V88.8439C133.815 88.9044 133.589 88.9469 133.359 88.9708L133.336 88.9737V86.4597L133.359 86.457C133.589 86.4333 133.815 86.3907 134.033 86.3301ZM133.336 86.4595V88.9735C132.939 89.0143 132.531 89.0244 132.129 89.0244C117.639 89.026 103.147 89.0268 88.6572 89.0268C78.4101 89.0268 68.165 89.0265 57.9178 89.0259C55.3062 89.0259 54.2944 88.3558 54.2944 86.6301V84.1161C54.2944 85.8417 55.3062 86.5121 57.9178 86.5121C82.6549 86.5133 107.392 86.5128 132.129 86.5106C132.531 86.5107 132.939 86.5007 133.336 86.4595Z" fill="#002C16"/>
</g>
<defs>
<filter id="filter0_i_1_770" x="0" y="0" width="190" height="134" filterUnits="userSpaceOnUse" color-interpolation-filters="sRGB">
<feFlood flood-opacity="0" result="BackgroundImageFix"/>
<feBlend mode="normal" in="SourceGraphic" in2="BackgroundImageFix" result="shape"/>
<feColorMatrix in="SourceAlpha" type="matrix" values="0 0 0 0 0 0 0 0 0 0 0 0 0 0 0 0 0 0 127 0" result="hardAlpha"/>
<feOffset dy="4"/>
<feGaussianBlur stdDeviation="2"/>
<feComposite in2="hardAlpha" operator="arithmetic" k2="-1" k3="1"/>
<feColorMatrix type="matrix" values="0 0 0 0 0 0 0 0 0 0 0 0 0 0 0 0 0 0 0.25 0"/>
<feBlend mode="normal" in2="shape" result="effect1_innerShadow_1_770"/>
</filter>
</defs>
</svg>
